<svg version="1.2" xmlns="http://www.w3.org/2000/svg" viewBox="0 0 100 13" width="100" height="13"><style>.a{fill:#383635}.b{fill:#f36d37}</style><path class="a" d="m70.5 0.7q-3.9 0-7.8 0c-0.1 0.6-0.1 1.3 0 1.9 1.7 0 3.4 0 5 0l-5.3 8.5q-0.2 0.7 0 1.5c2.7 0 5.4 0 8.2 0 0.1-0.6 0.1-1.3 0-1.9q-2.7 0-5.4 0l5.3-8.5q0.1-0.8 0-1.5z"/><path class="a" d="m52.3 4.2l4.7 8.4q1.1 0.2 2.1 0c0-3.9 0-7.9 0-11.8q-1-0.1-2.1 0c0 2.4 0 6 0 8.3l-4.7-8.4q-1-0.1-2.1 0c0 3.9 0 7.9 0 11.8q1.1 0.2 2.1 0c0-2.4 0-6 0-8.3z"/><path class="a" d="m27.8 12.6h1.3 3.9 1.9q0.1-1.1 0-2.1h-5v-4.9-1.9-3q-1-0.1-2.1 0v3 1.9z"/><path class="b" d="m22.3 10.7h-2.5-0.9v-3.2h4.3q0.2-0.9 0-1.8h-4.3v-3.2h0.9 3 1.2q0.2-0.9 0-1.8h-1.2-3-2.9v4.3l1 1.7-1 1.5v4.3h2.9 2.5 1.8q0.2-0.9 0-1.8z"/><path class="a" d="m83.1 12.3c-0.2-0.6-0.1-0.4-0.3-1-1-2.7-2.4-7.8-3.4-10.5-0.1 0-0.3-0.1-0.4-0.1-0.3-0.1-0.6-0.1-0.9-0.1-0.3 0-0.6 0-0.9 0.1-0.1 0-0.3 0.1-0.4 0.1-1 2.7-2.4 7.8-3.4 10.5-0.2 0.6-0.1 0.4-0.3 1 0.7 0.4 1.5 0.4 2.2 0l0.7-2 2.1-7 2.2 7.4 0.6 1.6c0.8 0.4 1.5 0.4 2.2 0z"/><path class="a" d="m47.2 12.3c-0.2-0.6-0.1-0.4-0.3-1-1-2.7-2.4-7.8-3.4-10.5-0.1 0-0.3-0.1-0.4-0.1-0.3-0.1-0.6-0.1-0.9-0.1-0.3 0-0.6 0-0.9 0.1-0.1 0-0.3 0.1-0.4 0.1-1 2.7-2.4 7.8-3.4 10.5-0.2 0.6-0.1 0.4-0.3 1 0.7 0.4 1.5 0.4 2.2 0l0.7-2 2.1-7 2.2 7.4 0.6 1.6c0.8 0.4 1.5 0.4 2.2 0z"/></svg>