<?xml version="1.0" encoding="utf-8"?>
<!-- Generator: Adobe Illustrator 26.0.3, SVG Export Plug-In . SVG Version: 6.00 Build 0)  -->
<svg version="1.1" id="Layer_1" xmlns="http://www.w3.org/2000/svg" xmlns:xlink="http://www.w3.org/1999/xlink" x="0px" y="0px"
	 viewBox="0 0 100 13" style="enable-background:new 0 0 100 13;" xml:space="preserve">
<style type="text/css">
	.st0{fill:#383635;}
	.st1{fill:#F36D37;}
</style>
<path class="st0" d="M70.5,0.7c-2.6,0-5.2,0-7.8,0c-0.1,0.6-0.1,1.3,0,1.9c1.7,0,3.4,0,5,0l-5.3,8.5c-0.1,0.5-0.1,1,0,1.5
	c2.7,0,5.4,0,8.2,0c0.1-0.6,0.1-1.3,0-1.9c-1.8,0-3.6,0-5.4,0l5.3-8.5v0C70.6,1.7,70.6,1.2,70.5,0.7"/>
<path class="st0" d="M52.3,4.2l4.7,8.4v0c0.7,0.1,1.4,0.1,2.1,0c0-3.9,0-7.9,0-11.8c-0.7-0.1-1.4-0.1-2.1,0c0,2.4,0,6,0,8.3
	l-4.7-8.4h0c-0.7-0.1-1.4-0.1-2.1,0c0,3.9,0,7.9,0,11.8c0.7,0.1,1.4,0.1,2.1,0C52.3,10.1,52.3,6.5,52.3,4.2"/>
<path class="st0" d="M27.8,12.6h1.3H33h1.9c0.1-0.7,0.1-1.4,0-2.1h-5V5.6V3.7v-3c-0.7-0.1-1.4-0.1-2.1,0v3v1.9V12.6z"/>
<path class="st1" d="M22.3,10.7h-2.5h-0.9V7.5h4.3c0.1-0.6,0.1-1.2,0-1.8h-4.3V2.5h0.9h3h1.2c0.1-0.6,0.1-1.2,0-1.8h-1.2h-3h-2.9V5
	l1,1.7l-1,1.5v4.3h2.9h2.5h1.8c0.1-0.6,0.1-1.2,0-1.8H22.3z"/>
<path class="st0" d="M83.1,12.3c-0.2-0.6-0.1-0.4-0.3-1c-1-2.7-2.4-7.8-3.4-10.5c-0.1,0-0.3-0.1-0.4-0.1l0,0l0,0l0,0
	c-0.3-0.1-0.6-0.1-0.9-0.1l0,0l0,0h0l0,0l0,0c-0.3,0-0.6,0-0.9,0.1l0,0l0,0l0,0c-0.1,0-0.3,0.1-0.4,0.1c-1,2.7-2.4,7.8-3.4,10.5
	c-0.2,0.6-0.1,0.4-0.3,1c0.7,0.4,1.5,0.4,2.2,0l0.7-2l0,0l2.1-7l2.2,7.4l0.6,1.6C81.7,12.7,82.4,12.7,83.1,12.3"/>
<path class="st0" d="M47.2,12.3c-0.2-0.6-0.1-0.4-0.3-1c-1-2.7-2.4-7.8-3.4-10.5c-0.1,0-0.3-0.1-0.4-0.1l0,0l0,0l0,0
	c-0.3-0.1-0.6-0.1-0.9-0.1l0,0l0,0h0l0,0l0,0c-0.3,0-0.6,0-0.9,0.1l0,0l0,0l0,0c-0.1,0-0.3,0.1-0.4,0.1c-1,2.7-2.4,7.8-3.4,10.5
	c-0.2,0.6-0.1,0.4-0.3,1c0.7,0.4,1.5,0.4,2.2,0l0.7-2l0,0l2.1-7l2.2,7.4l0.6,1.6C45.8,12.7,46.5,12.7,47.2,12.3"/>
</svg>
